<svg xmlns="http://www.w3.org/2000/svg" xmlns:xlink="http://www.w3.org/1999/xlink" width="500" zoomAndPan="magnify" viewBox="0 0 375 374.999991" height="500" preserveAspectRatio="xMidYMid meet" version="1.0"><defs><g/></defs><rect x="-37.5" width="450" fill="#ffffff" y="-37.499999" height="449.999989" fill-opacity="1"/><rect x="-37.5" width="450" fill="#ffffff" y="-37.499999" height="449.999989" fill-opacity="1"/><g fill="#000000" fill-opacity="1"><g transform="translate(109.914263, 223.299485)"><g><path d="M 77.546875 -1.84375 C 77.734375 -1.375 77.707031 -0.945312 77.46875 -0.5625 C 77.238281 -0.1875 76.835938 0 76.265625 0 L 55.953125 0 C 55.203125 0 54.734375 -0.285156 54.546875 -0.859375 L 33.796875 -45.875 L 21.59375 -45.875 L 21.59375 -1.28125 C 21.59375 -0.425781 21.070312 0 20.03125 0 L 1.421875 0 C 0.472656 0 0 -0.425781 0 -1.28125 L 0 -66.75 L 38.203125 -66.75 C 39.335938 -66.75 40.851562 -66.84375 42.75 -67.03125 C 44.644531 -67.226562 46.515625 -67.75 48.359375 -68.59375 C 50.203125 -69.445312 51.765625 -70.75 53.046875 -72.5 C 54.328125 -74.257812 54.96875 -76.703125 54.96875 -79.828125 C 54.96875 -82.953125 54.28125 -85.410156 52.90625 -87.203125 C 51.53125 -89.003906 49.847656 -90.304688 47.859375 -91.109375 C 45.867188 -91.910156 43.972656 -92.429688 42.171875 -92.671875 C 40.378906 -92.910156 39.054688 -93.03125 38.203125 -93.03125 L 0 -93.03125 L 0 -112.34375 C 0 -113.195312 0.472656 -113.625 1.421875 -113.625 L 38.203125 -113.625 C 39.523438 -113.625 41.65625 -113.503906 44.59375 -113.265625 C 47.53125 -113.035156 50.820312 -112.398438 54.46875 -111.359375 C 58.113281 -110.316406 61.613281 -108.609375 64.96875 -106.234375 C 68.332031 -103.867188 71.101562 -100.554688 73.28125 -96.296875 C 75.46875 -92.035156 76.5625 -86.546875 76.5625 -79.828125 C 76.5625 -74.046875 75.613281 -69.140625 73.71875 -65.109375 C 71.820312 -61.085938 69.285156 -57.800781 66.109375 -55.25 C 62.941406 -52.695312 59.460938 -50.707031 55.671875 -49.28125 C 59.273438 -41.238281 62.945312 -33.285156 66.6875 -25.421875 C 70.425781 -17.566406 74.046875 -9.707031 77.546875 -1.84375 Z M 77.546875 -1.84375 "/></g></g></g><g fill="#000000" fill-opacity="1"><g transform="translate(186.757746, 273.491626)"><g><path d="M 63.953125 -20.578125 L 85.375 -20.578125 L 85.375 -1.265625 C 85.375 -0.421875 84.859375 0 83.828125 0 L 65.640625 0 C 60.035156 0 54.203125 -0.414062 48.140625 -1.25 C 42.078125 -2.09375 36.195312 -3.65625 30.5 -5.9375 C 24.8125 -8.226562 19.660156 -11.445312 15.046875 -15.59375 C 10.429688 -19.75 6.769531 -25.113281 4.0625 -31.6875 C 1.351562 -38.269531 0 -46.367188 0 -55.984375 C 0 -65.867188 1.375 -74.171875 4.125 -80.890625 C 6.875 -87.609375 10.554688 -93.019531 15.171875 -97.125 C 19.796875 -101.226562 24.976562 -104.351562 30.71875 -106.5 C 36.457031 -108.644531 42.332031 -110.09375 48.34375 -110.84375 C 54.363281 -111.59375 60.128906 -111.96875 65.640625 -111.96875 L 83.828125 -111.96875 C 84.859375 -111.96875 85.375 -111.546875 85.375 -110.703125 L 85.375 -66.75 L 63.953125 -66.75 L 63.953125 -91.53125 C 55.835938 -92 48.582031 -91.085938 42.1875 -88.796875 C 35.800781 -86.515625 30.765625 -82.691406 27.078125 -77.328125 C 23.390625 -71.960938 21.546875 -64.847656 21.546875 -55.984375 C 21.546875 -49.078125 22.550781 -43.382812 24.5625 -38.90625 C 26.570312 -34.425781 29.226562 -30.925781 32.53125 -28.40625 C 35.84375 -25.882812 39.410156 -24.039062 43.234375 -22.875 C 47.066406 -21.71875 50.800781 -21.019531 54.4375 -20.78125 C 58.082031 -20.550781 61.253906 -20.484375 63.953125 -20.578125 Z M 63.953125 -20.578125 "/></g></g></g></svg>